# xmcd
#
# Track frame offsets:
# 150
# 19116
# 32832
# 47144
# 65234
# 79028
# 91447
# 97030
# 119254
# 134809
# 161134
# 170989
# 178035
# 187116
# 225942
# 241403
# 253223
# 267343
# 276534
# 294489
# 318961
#
# Disc length: 4412 seconds
#
# Revision: 1
# Processed by: cddbd v1.5.2PL0 Copyright (c) Steve Scherf et al.
# Submitted via: CedeCatalogueitor 2.6.0.6 http://personales.ya.com/cdcatalogueitor
#
DISCID=46113a15
DTITLE=Varios Artistas - Lujo Y Miseria
DYEAR=1900
DGENRE=
TTITLE0=Stardu: Todo Es Lounge (Mi Vida Es Lynch)
TTITLE1=Hidrogenesse: He Vuelto
TTITLE2=Chico Y Chica: Aburrida De La Vida
TTITLE3=Les Biscuits Sales: Recuerdos De Suiza
TTITLE4=Basura: Era Fácil (pero Ya No Lo Es)
TTITLE5=Hidrogenesse: Es Odiós Quan Els Amics Triomfen
TTITLE6=Araceli Y Techopolla: Chocho Loco
TTITLE7=Basura: Más Que Mina
TTITLE8=Chico Y Chica: El Influjo Del Lujo
TTITLE9=Hidrogenesse Y Arden: Hidroboy (club Mix)
TTITLE10=Les Biscuits Sales: No Sé
TTITLE11=Stardu: Sugus Y Besos
TTITLE12=Tema De Lujo Y Miseria
TTITLE13=Basura: El Sueño De Fina
TTITLE14=Arden: No Quiero Ni Verlo Ni Saberlo
TTITLE15=Nautilus: Soy Un Electroduende
TTITLE16=Basura: Muy Parecido A Un Sueño
TTITLE17=Stardu: Estamos En El Futuro
TTITLE18=Chico Y Chica: Río Por No Llorar
TTITLE19=Hidrogenesse: Vuelve Conmigo A Italia
TTITLE20=Batan: El Terro Del Amor
EXTD=
EXTT0=
EXTT1=
EXTT2=
EXTT3=
EXTT4=
EXTT5=
EXTT6=
EXTT7=
EXTT8=
EXTT9=
EXTT10=
EXTT11=
EXTT12=
EXTT13=
EXTT14=
EXTT15=
EXTT16=
EXTT17=
EXTT18=
EXTT19=
EXTT20=
PLAYORDER=
